<svg xmlns="http://www.w3.org/2000/svg" width="500" height="500" version="1.0" viewBox="0 0 375 375"><defs><clipPath id="a"><path d="M195.43 114.836h30.636v29.156H195.43Zm0 0"/></clipPath><clipPath id="b"><path d="m210.727 114.836 3.609 11.137h11.684l-9.454 6.882 3.61 11.137-9.45-6.883-9.453 6.883 3.61-11.137-9.453-6.882h11.683Zm0 0"/></clipPath></defs><g clip-path="url(#a)"><g clip-path="url(#b)"><path d="M195.43 114.836h30.636v29.156H195.43Zm0 0"/></g></g><path fill="#38b6ff" d="M60.559 109.24q-.002-1.887-.954-2.907-.939-1.03-2.14-1.468-1.208-.45-2.156-.532-.938-.076-.938-.078h-6.297v9.61h6.297q0 .002.938-.079.948-.076 2.156-.5a5.65 5.65 0 0 0 2.14-1.359c.633-.633.954-1.531.954-2.687m8.03-.47q-.002 3.674-1.702 5.829-1.706 2.156-4.125 3.14 2.515.845 3.828 2.297c.875.961 1.492 1.938 1.86 2.938.374.992.585 1.828.64 2.516.05.68.078 1.015.078 1.015 0 2.344-.414 4.274-1.234 5.781q-1.236 2.25-3.157 3.563a14.6 14.6 0 0 1-3.984 1.953q-2.08.628-3.844.781-1.752.158-2.578.157h-6.25v-7.657h6.25q1.312.001 2.875-.343a5.84 5.84 0 0 0 2.734-1.391q1.156-1.042 1.157-3.047 0-1.464-.688-2.39a4.35 4.35 0 0 0-1.672-1.391 7.4 7.4 0 0 0-2.03-.625 18 18 0 0 0-1.704-.188l-.672-.03H40.09V97.223q-.001-.47.578-.469h13.703s.336.024 1.016.063q1.029.046 2.656.328c1.082.187 2.227.523 3.437 1a13 13 0 0 1 3.438 2.015q1.621 1.313 2.64 3.422c.688 1.399 1.032 3.125 1.032 5.188m0 0"/><path d="M87.75 131.552q.576 0 .578.469v6.25q-.002.469-.578.469H71.219q-.58 0-.578-.47v-6.25q-.001-.468.578-.468h4.297V96.755h8.03v34.797ZM123.967 96.755q.576 0 .578.469v41.047q-.002.469-.578.469h-6.937a1.4 1.4 0 0 1-.235-.047.65.65 0 0 1-.234-.11L97.25 110.927v17.734h-8.032V97.224q-.001-.47.532-.469h6.968q.106.001.266.031.154.019.219.125l19.36 27.657V97.224q-.001-.47.624-.469ZM158.334 104.474h-8.031q-1.518-.061-3.563.078a18.4 18.4 0 0 0-4.203.781 12.7 12.7 0 0 0-4.016 2.078q-1.863 1.407-3 3.938-1.125 2.52-1.125 6.39 0 5.005 2.078 8.016 2.075 3.017 5.672 4.281 3.593 1.253 8.157 1.047v-10.5h-8.079v-8.03h16.11v25.718q-.002.469-.578.469h-6.828q-3.096 0-6.485-.422a29.2 29.2 0 0 1-6.61-1.625 18.4 18.4 0 0 1-5.827-3.516q-2.595-2.308-4.14-6.094-1.548-3.778-1.548-9.343-.001-5.403 1.516-9.094 1.53-3.702 4.125-6.031a19.2 19.2 0 0 1 5.797-3.625 27.6 27.6 0 0 1 6.61-1.766 48 48 0 0 1 6.562-.469h6.828q.576 0 .578.469ZM180.424 109.24q-.002-1.887-.953-2.907-.939-1.03-2.14-1.468-1.208-.45-2.157-.532-.937-.076-.937-.078h-6.297v9.61h6.297q0 .002.937-.079.95-.076 2.157-.5a5.65 5.65 0 0 0 2.14-1.359q.951-.951.953-2.687m8.032-.47q-.002 3.674-1.703 5.829-1.706 2.156-4.125 3.14 2.514.845 3.828 2.297c.875.961 1.492 1.938 1.859 2.938.375.992.586 1.828.64 2.516.051.68.079 1.015.079 1.015 0 2.344-.414 4.274-1.235 5.781q-1.235 2.25-3.156 3.563a14.6 14.6 0 0 1-3.984 1.953q-2.08.628-3.844.781-1.752.158-2.578.157h-6.25v-7.657h6.25q1.312.001 2.875-.343a5.84 5.84 0 0 0 2.734-1.391q1.156-1.042 1.157-3.047 0-1.464-.688-2.39a4.35 4.35 0 0 0-1.672-1.391 7.4 7.4 0 0 0-2.031-.625 18 18 0 0 0-1.703-.188l-.672-.03h-14.281V97.223q-.001-.47.578-.469h13.703s.336.024 1.016.063q1.029.046 2.656.328c1.082.187 2.226.523 3.437 1a13 13 0 0 1 3.438 2.015q1.622 1.313 2.64 3.422c.688 1.399 1.032 3.125 1.032 5.188M214.638 117.849q0 1.628-1.125 2.781c-.75.774-1.688 1.156-2.813 1.156-1.086 0-2.012-.382-2.781-1.156-.774-.77-1.156-1.695-1.156-2.781 0-1.113.382-2.055 1.156-2.828q1.154-1.156 2.781-1.156 1.688 0 2.813 1.156 1.125 1.159 1.125 2.828m16.265-.156q0 3.937-1.265 7.687a20.9 20.9 0 0 1-3.766 6.781q-2.518 3.017-6.297 4.797-3.784 1.782-8.812 1.782-5.098 0-8.907-1.782-3.795-1.78-6.328-4.797a21 21 0 0 1-3.781-6.78 24.1 24.1 0 0 1-1.25-7.688c0-2.625.414-5.176 1.25-7.657a20.6 20.6 0 0 1 3.781-6.718q2.532-3 6.328-4.782 3.81-1.78 8.907-1.78 5.027 0 8.812 1.78 3.779 1.782 6.297 4.782a20.5 20.5 0 0 1 3.766 6.718 23.6 23.6 0 0 1 1.265 7.657m-7.86.156q0-2.561-.796-5a14.2 14.2 0 0 0-2.313-4.422q-1.518-1.966-3.828-3.125-2.315-1.156-5.343-1.156-3.113.001-5.422 1.156a11.3 11.3 0 0 0-3.844 3.125 13.7 13.7 0 0 0-2.313 4.422 16.6 16.6 0 0 0-.765 5q0 2.519.765 4.937a13.5 13.5 0 0 0 2.313 4.36 11.4 11.4 0 0 0 3.844 3.094q2.309 1.158 5.422 1.156 3.03.002 5.343-1.156 2.31-1.155 3.828-3.094 1.53-1.95 2.313-4.36.797-2.418.797-4.937M271.164 96.755q.42.001.578.266.153.252-.063.515l-14.484 20.204q2.309 3.205 4.64 6.468 2.343 3.253 4.657 6.5h-9.766l-4.36-6.14-10.015 14.015a1 1 0 0 1-.219.11 1 1 0 0 1-.265.047h-8.39q-.377.002-.5-.266c-.083-.176-.06-.348.077-.516l14.375-20.218q-2.298-3.187-4.61-6.438-2.314-3.264-4.624-6.516h9.766l4.406 6.141 9.922-14.016q.046-.106.234-.125a2 2 0 0 1 .234-.03Zm0 0"/></svg>